<?xml version="1.0" encoding="iso-8859-1"?>
<!-- Generator: Adobe Illustrator 17.0.0, SVG Export Plug-In . SVG Version: 6.00 Build 0)  -->
<!DOCTYPE svg PUBLIC "-//W3C//DTD SVG 1.1//EN" "http://www.w3.org/Graphics/SVG/1.1/DTD/svg11.dtd" [
	<!ENTITY ns_flows "http://ns.adobe.com/Flows/1.0/">
	<!ENTITY ns_extend "http://ns.adobe.com/Extensibility/1.0/">
	<!ENTITY ns_ai "http://ns.adobe.com/AdobeIllustrator/10.0/">
	<!ENTITY ns_graphs "http://ns.adobe.com/Graphs/1.0/">
	<!ENTITY ns_vars "http://ns.adobe.com/Variables/1.0/">
	<!ENTITY ns_imrep "http://ns.adobe.com/ImageReplacement/1.0/">
	<!ENTITY ns_sfw "http://ns.adobe.com/SaveForWeb/1.0/">
	<!ENTITY ns_custom "http://ns.adobe.com/GenericCustomNamespace/1.0/">
	<!ENTITY ns_adobe_xpath "http://ns.adobe.com/XPath/1.0/">
]>
<svg version="1.1" id="Livello_1" xmlns:x="&ns_extend;" xmlns:i="&ns_ai;" xmlns:graph="&ns_graphs;"
	 xmlns="http://www.w3.org/2000/svg" xmlns:xlink="http://www.w3.org/1999/xlink" xmlns:a="http://ns.adobe.com/AdobeSVGViewerExtensions/3.0/"
	 x="0px" y="0px" width="595.28px" height="841.89px" viewBox="0 0 595.28 841.89" enable-background="new 0 0 595.28 841.89"
	 xml:space="preserve">
<metadata>
	<sfw  xmlns="&ns_sfw;">
		<slices></slices>
		<sliceSourceBounds  width="16383" height="16383" y="-8613" x="-11671.931" bottomLeftOrigin="true"></sliceSourceBounds>
	</sfw>
</metadata>
<path fill="none" stroke="#1F196D" stroke-width="1.5" stroke-miterlimit="10" d="M321.227,416.421l-38.44,12.188 M283.248,428.388
	l8.097-39.505 M291.344,388.883l29.883,27.537"/>
<polyline fill="none" stroke="#0B0146" stroke-width="0.14" stroke-linecap="square" stroke-miterlimit="10" points="
	299.158,368.499 300.944,369.624 302.724,370.818 304.48,372.062 306.211,373.354 307.894,374.695 309.528,376.085 311.138,377.523 
	312.698,379.011 314.21,380.547 315.674,382.107 317.088,383.717 318.478,385.375 319.795,387.057 321.088,388.788 322.307,390.568 
	323.478,392.348 324.6,394.201 325.673,396.054 326.697,397.956 327.672,399.882 328.575,401.833 329.428,403.808 330.209,405.807 
	330.94,407.831 331.623,409.879 332.233,411.927 332.794,413.999 333.282,416.096 333.721,418.217 334.111,420.314 334.403,422.46 
	334.672,424.581 334.867,426.727 334.989,428.873 335.062,431.018 335.062,433.188 334.989,435.334 334.891,437.479 
	334.696,439.625 334.452,441.771 334.16,443.892 333.794,446.013 333.355,448.11 332.867,450.207 332.331,452.304 "/>
<polyline fill="none" stroke="#0B0146" stroke-width="0.14" stroke-linecap="square" stroke-miterlimit="10" points="
	283.837,380.736 285.799,381.522 287.774,382.376 289.701,383.278 291.603,384.253 293.505,385.253 295.359,386.326 
	297.188,387.447 298.968,388.617 300.724,389.836 302.456,391.104 304.138,392.421 305.797,393.786 307.406,395.201 
	308.967,396.664 310.479,398.151 311.967,399.711 313.406,401.296 314.796,402.905 316.161,404.563 317.454,406.27 318.698,408.001 
	319.893,409.781 321.063,411.586 322.161,413.414 323.21,415.292 324.185,417.193 325.136,419.12 326.014,421.07 326.843,423.045 
	327.624,425.02 328.331,427.044 328.989,429.092 329.599,431.14 330.136,433.213 330.623,435.309 331.038,437.406 331.404,439.503 
	331.696,441.624 331.94,443.746 332.135,445.891 332.257,448.013 332.331,450.158 332.331,452.304 "/>
<polyline fill="none" stroke="#0B0146" stroke-width="0.14" stroke-linecap="square" stroke-miterlimit="10" points="
	258.655,439.869 262.143,439.333 265.63,438.821 269.118,438.406 272.629,438.04 276.141,437.723 279.653,437.479 283.165,437.284 
	286.701,437.187 290.213,437.114 293.749,437.114 297.261,437.187 300.797,437.333 304.309,437.528 307.821,437.772 
	311.333,438.089 314.845,438.479 318.332,438.918 321.819,439.406 325.307,439.991 328.77,440.6 332.233,441.307 335.585,442.02 "/>
<polyline fill="none" stroke="#0B0146" stroke-width="0.14" stroke-linecap="square" stroke-miterlimit="10" points="
	268.288,439.869 268.264,437.553 268.288,435.236 268.386,432.92 268.557,430.604 268.776,428.287 269.044,425.971 269.386,423.679 
	269.776,421.387 270.239,419.12 270.752,416.852 271.337,414.609 271.971,412.366 272.654,410.147 273.41,407.953 274.215,405.783 
	275.093,403.613 275.995,401.491 276.97,399.37 278.019,397.298 279.092,395.249 280.238,393.226 281.433,391.226 282.677,389.276 
	283.97,387.35 285.311,385.448 286.701,383.595 288.14,381.766 289.628,379.986 291.164,378.255 292.749,376.548 294.359,374.89 
	296.042,373.281 297.749,371.696 299.48,370.16 301.285,368.697 303.114,367.259 304.968,365.869 306.87,364.528 308.796,363.26 "/>
<polyline fill="none" stroke="#0B0146" stroke-width="0.14" stroke-linecap="square" stroke-miterlimit="10" points="
	294.636,371.536 296.456,372.549 298.31,373.622 300.114,374.744 301.895,375.914 303.626,377.133 305.333,378.401 306.992,379.718 
	308.626,381.108 310.211,382.522 311.772,383.985 313.259,385.472 314.723,387.033 316.137,388.617 317.503,390.251 318.82,391.933 
	320.088,393.64 321.307,395.371 322.478,397.151 323.6,398.956 324.673,400.809 325.673,402.686 326.624,404.588 327.526,406.514 
	328.38,408.465 329.16,410.44 329.892,412.439 330.55,414.463 331.184,416.511 331.721,418.559 332.233,420.631 332.648,422.704 
	333.038,424.801 333.33,426.922 333.599,429.019 333.794,431.14 333.916,433.261 333.989,435.407 333.989,437.528 333.916,439.65 
	333.818,441.771 333.623,443.892 333.379,446.013 333.087,448.11 332.721,450.207 332.306,452.304 "/>
<polyline fill="none" stroke="#0B0146" stroke-width="0.14" stroke-linecap="square" stroke-miterlimit="10" points="
	280.942,383.777 283.019,384.521 285.067,385.375 287.091,386.277 289.067,387.228 291.042,388.252 292.969,389.3 294.895,390.422 
	296.749,391.592 298.602,392.836 300.407,394.103 302.163,395.444 303.894,396.81 305.577,398.248 307.236,399.711 308.845,401.247 
	310.406,402.808 311.918,404.417 313.381,406.051 314.82,407.757 316.186,409.489 317.503,411.244 318.795,413.073 320.015,414.901 
	321.185,416.779 322.307,418.681 323.356,420.631 324.38,422.582 325.331,424.581 326.209,426.605 327.063,428.653 327.843,430.726 
	328.55,432.822 329.209,434.919 329.819,437.065 330.355,439.186 330.843,441.356 331.257,443.526 331.623,445.721 331.916,447.891 
	332.135,450.109 332.331,452.304 "/>
<polyline fill="none" stroke="#0B0146" stroke-width="0.14" stroke-linecap="square" stroke-miterlimit="10" points="
	258.655,439.893 262.143,439.064 265.63,438.308 269.142,437.626 272.678,436.992 276.214,436.431 279.751,435.919 283.311,435.48 
	286.872,435.114 290.432,434.797 293.993,434.554 297.578,434.383 301.139,434.261 304.724,434.212 308.309,434.237 311.894,434.31 
	315.454,434.456 319.039,434.651 322.6,434.919 326.16,435.261 329.721,435.651 333.257,436.114 336.692,436.631 "/>
<polyline fill="none" stroke="#0B0146" stroke-width="0.14" stroke-linecap="square" stroke-miterlimit="10" points="
	258.655,439.869 261.679,438.138 264.728,436.48 267.801,434.846 270.898,433.261 274.044,431.75 277.19,430.287 280.385,428.897 
	283.58,427.531 286.799,426.239 290.067,425.02 293.335,423.825 296.627,422.704 299.944,421.655 303.26,420.631 306.626,419.68 
	309.991,418.803 313.357,417.974 316.747,417.193 320.161,416.486 323.575,415.852 327.014,415.243 330.453,414.731 
	333.891,414.243 337.242,413.853 "/>
<polyline fill="none" stroke="#0B0146" stroke-width="0.14" stroke-linecap="square" stroke-miterlimit="10" points="
	273.459,440.064 273.337,437.772 273.288,435.431 273.288,433.115 273.361,430.799 273.483,428.482 273.678,426.19 273.922,423.874 
	274.239,421.582 274.605,419.29 275.019,416.998 275.507,414.731 276.044,412.488 276.653,410.244 277.312,408.026 278.019,405.831 
	278.8,403.637 279.629,401.467 280.531,399.321 281.458,397.224 282.458,395.127 283.506,393.055 284.604,391.007 285.774,389.008 
	286.969,387.033 288.238,385.082 289.555,383.156 290.896,381.278 292.31,379.45 293.774,377.645 295.261,375.865 296.822,374.159 
	298.407,372.452 300.041,370.818 301.7,369.209 303.431,367.649 305.187,366.137 306.967,364.674 308.821,363.26 "/>
<polyline fill="none" stroke="#0B0146" stroke-width="0.14" stroke-linecap="square" stroke-miterlimit="10" points="
	308.796,363.26 310.479,364.65 312.138,366.088 313.771,367.551 315.332,369.087 316.869,370.648 318.356,372.257 319.795,373.915 
	321.21,375.622 322.551,377.353 323.844,379.133 325.087,380.937 326.258,382.79 327.404,384.667 328.477,386.569 329.526,388.495 
	330.477,390.47 331.404,392.47 332.257,394.494 333.062,396.542 333.794,398.59 334.477,400.687 335.111,402.784 335.672,404.905 
	336.159,407.05 336.598,409.196 336.989,411.366 337.306,413.536 337.549,415.706 337.745,417.9 337.866,420.095 337.94,422.289 
	337.94,424.484 337.866,426.678 337.745,428.873 337.574,431.043 337.306,433.237 337.013,435.407 336.623,437.577 336.208,439.723 
	335.696,441.868 335.135,443.99 334.525,446.086 333.842,448.183 333.111,450.231 332.331,452.28 "/>
<polyline fill="none" stroke="#0B0146" stroke-width="0.14" stroke-linecap="square" stroke-miterlimit="10" points="
	290.405,374.862 292.213,375.719 294.115,376.646 295.944,377.645 297.773,378.694 299.578,379.791 301.334,380.961 
	303.065,382.156 304.748,383.424 306.406,384.716 308.016,386.082 309.577,387.471 311.113,388.91 312.601,390.397 314.064,391.933 
	315.454,393.494 316.82,395.103 318.112,396.761 319.381,398.443 320.6,400.15 321.746,401.906 322.868,403.71 323.917,405.539 
	324.917,407.367 325.868,409.269 326.77,411.171 327.599,413.097 328.38,415.048 329.111,417.023 329.77,419.022 330.379,421.046 
	330.94,423.07 331.428,425.118 331.843,427.166 332.233,429.238 332.526,431.335 332.794,433.432 332.965,435.529 333.111,437.626 
	333.184,439.723 333.184,441.82 333.135,443.941 333.013,446.038 332.843,448.135 332.599,450.231 332.306,452.304 "/>
<polyline fill="none" stroke="#0B0146" stroke-width="0.14" stroke-linecap="square" stroke-miterlimit="10" points="
	258.655,439.893 262.24,439.845 265.801,439.869 269.386,439.942 272.971,440.088 276.531,440.308 280.092,440.576 283.677,440.917 
	287.213,441.332 290.774,441.795 294.31,442.332 297.846,442.917 301.358,443.575 304.87,444.307 308.357,445.087 311.82,445.94 
	315.283,446.842 318.747,447.818 322.161,448.866 325.575,449.963 328.965,451.109 332.331,452.328 "/>
<polyline fill="none" stroke="#0B0146" stroke-width="0.14" stroke-linecap="square" stroke-miterlimit="10" points="
	258.655,439.893 261.972,438.845 265.313,437.87 268.654,436.943 272.02,436.09 275.41,435.285 278.8,434.529 282.214,433.846 
	285.628,433.213 289.042,432.652 292.481,432.14 295.944,431.701 299.383,431.311 302.846,430.994 306.309,430.726 309.796,430.531 
	313.259,430.384 316.747,430.311 320.21,430.287 323.697,430.335 327.16,430.433 330.623,430.604 334.111,430.823 337.574,431.091 
	"/>
<polyline fill="none" stroke="#0B0146" stroke-width="0.14" stroke-linecap="square" stroke-miterlimit="10" points="
	258.68,439.869 258.753,437.577 258.899,435.261 259.094,432.993 259.363,430.701 259.68,428.434 260.07,426.166 260.509,423.899 
	260.997,421.655 261.582,419.437 262.191,417.218 262.874,415.023 263.606,412.853 264.411,410.708 265.264,408.562 
	266.167,406.465 267.142,404.368 268.142,402.32 269.215,400.272 270.361,398.273 271.532,396.322 272.751,394.372 274.044,392.47 
	275.385,390.592 276.775,388.764 278.19,386.959 279.677,385.204 281.19,383.497 282.775,381.815 284.384,380.181 286.043,378.596 
	287.725,377.036 289.481,375.549 291.262,374.086 293.066,372.671 294.92,371.33 296.798,370.014 298.724,368.77 300.675,367.551 
	302.675,366.405 304.699,365.308 306.723,364.259 308.796,363.26 "/>
<polyline fill="none" stroke="#0B0146" stroke-width="0.14" stroke-linecap="square" stroke-miterlimit="10" points="
	278.946,440.454 278.702,438.138 278.531,435.821 278.409,433.481 278.361,431.164 278.385,428.848 278.434,426.507 278.58,424.191 
	278.775,421.875 279.019,419.559 279.336,417.242 279.702,414.95 280.141,412.658 280.629,410.391 281.165,408.148 281.775,405.88 
	282.458,403.661 283.165,401.442 283.945,399.272 284.799,397.102 285.701,394.957 286.652,392.836 287.652,390.739 
	288.701,388.666 289.823,386.618 290.993,384.594 292.213,382.619 293.481,380.669 294.798,378.767 296.188,376.89 297.602,375.036 
	299.066,373.232 300.578,371.477 302.139,369.746 303.748,368.063 305.382,366.43 307.089,364.82 308.821,363.26 "/>
<polyline fill="none" stroke="#0B0146" stroke-width="0.14" stroke-linecap="square" stroke-miterlimit="10" points="
	258.655,439.869 261.899,438.357 265.167,436.894 268.459,435.505 271.776,434.139 275.093,432.871 278.458,431.628 
	281.848,430.457 285.238,429.336 288.652,428.287 292.091,427.288 295.529,426.361 299.017,425.483 302.48,424.654 305.992,423.899 
	309.479,423.216 313.015,422.582 316.527,421.997 320.064,421.485 323.624,421.021 327.185,420.631 330.745,420.29 334.306,420.022 
	337.773,419.827 "/>
<polyline fill="none" stroke="#0B0146" stroke-width="0.14" stroke-linecap="square" stroke-miterlimit="10" points="
	303.883,365.75 305.65,366.99 307.382,368.307 309.065,369.672 310.723,371.087 312.308,372.549 313.893,374.061 315.405,375.597 
	316.893,377.206 318.308,378.84 319.698,380.498 321.039,382.229 322.307,383.985 323.551,385.765 324.722,387.593 325.868,389.446 
	326.941,391.324 327.965,393.25 328.916,395.201 329.843,397.176 330.697,399.175 331.477,401.174 332.209,403.222 332.891,405.295 
	333.525,407.367 334.086,409.464 334.574,411.586 335.013,413.707 335.379,415.852 335.696,417.998 335.964,420.168 
	336.159,422.338 336.281,424.508 336.354,426.678 336.354,428.848 336.281,431.018 336.159,433.188 335.989,435.358 
	335.745,437.504 335.452,439.65 335.062,441.795 334.647,443.941 334.16,446.038 333.599,448.159 332.989,450.231 332.331,452.304 
	"/>
<polyline fill="none" stroke="#0B0146" stroke-width="0.14" stroke-linecap="square" stroke-miterlimit="10" points="
	286.998,377.71 288.92,378.548 290.847,379.45 292.749,380.401 294.627,381.4 296.456,382.449 298.261,383.57 300.041,384.716 
	301.773,385.935 303.48,387.203 305.163,388.52 306.797,389.861 308.382,391.275 309.943,392.714 311.455,394.201 312.918,395.737 
	314.332,397.322 315.698,398.931 317.039,400.589 318.308,402.296 319.527,404.027 320.722,405.783 321.844,407.587 
	322.917,409.415 323.941,411.269 324.917,413.17 325.843,415.072 326.697,417.023 327.502,418.973 328.233,420.973 328.941,422.972 
	329.55,424.996 330.136,427.044 330.648,429.092 331.111,431.189 331.501,433.261 331.843,435.358 332.111,437.455 332.331,439.576 
	332.477,441.698 332.574,443.819 332.599,445.94 332.574,448.061 332.477,450.183 332.331,452.304 "/>
<polyline fill="none" stroke="#0B0146" stroke-width="0.14" stroke-linecap="square" stroke-miterlimit="10" points="
	258.655,439.869 262.118,439.576 265.581,439.333 269.044,439.162 272.508,439.04 275.995,438.991 279.458,438.991 282.921,439.064 
	286.384,439.186 289.872,439.381 293.31,439.625 296.773,439.942 300.236,440.308 303.675,440.747 307.114,441.234 310.528,441.771 
	313.942,442.38 317.356,443.063 320.746,443.77 324.136,444.575 327.502,445.404 330.843,446.33 334.073,447.249 "/>
<polyline fill="none" stroke="#0B0146" stroke-width="0.14" stroke-linecap="square" stroke-miterlimit="10" points="
	258.655,439.869 261.948,438.577 265.24,437.333 268.557,436.163 271.922,435.041 275.288,433.993 278.653,432.993 282.067,432.042 
	285.482,431.164 288.92,430.36 292.359,429.604 295.822,428.897 299.285,428.263 302.773,427.702 306.26,427.19 309.747,426.751 
	313.259,426.361 316.771,426.044 320.283,425.776 323.819,425.581 327.331,425.459 330.867,425.386 334.403,425.362 
	337.773,425.408 "/>
<polyline fill="none" stroke="#0B0146" stroke-width="0.14" stroke-linecap="square" stroke-miterlimit="10" points="
	263.387,439.82 263.435,437.479 263.533,435.139 263.679,432.822 263.899,430.482 264.191,428.165 264.533,425.874 264.947,423.557 
	265.411,421.29 265.947,418.998 266.533,416.755 267.191,414.511 267.898,412.293 268.679,410.074 269.508,407.904 270.386,405.734 
	271.337,403.613 272.337,401.491 273.385,399.419 274.483,397.371 275.654,395.347 276.873,393.348 278.141,391.397 
	279.458,389.471 280.824,387.569 282.263,385.716 283.726,383.912 285.238,382.132 286.823,380.401 288.433,378.718 
	290.067,377.085 291.774,375.475 293.505,373.915 295.286,372.403 297.115,370.965 298.968,369.55 300.87,368.185 302.797,366.868 
	304.772,365.625 306.772,364.406 308.796,363.26 "/>
<polyline fill="none" stroke="#0B0146" stroke-width="0.14" stroke-linecap="square" stroke-miterlimit="10" points="
	284.872,441.039 284.482,438.723 284.14,436.382 283.872,434.042 283.653,431.701 283.506,429.36 283.433,427.02 283.409,424.679 
	283.458,422.314 283.555,419.973 283.726,417.632 283.945,415.292 284.238,412.951 284.604,410.635 285.018,408.318 
	285.482,406.026 286.018,403.734 286.628,401.467 287.286,399.199 288.018,396.981 288.798,394.762 289.628,392.567 290.53,390.397 
	291.481,388.252 292.505,386.13 293.578,384.034 294.7,381.961 295.871,379.937 297.115,377.938 298.383,375.987 299.724,374.037 
	301.114,372.159 302.553,370.306 304.065,368.478 305.602,366.698 307.187,364.967 308.796,363.284 "/>
<circle fill="#1F196D" cx="292.175" cy="388.754" r="6.939"/>
<circle fill="#1F196D" cx="321.227" cy="415.685" r="6.939"/>
<circle fill="#1F196D" cx="286.091" cy="426.861" r="6.939"/>
<rect x="328.817" y="462.392" fill="#FFFFFF" width="1.84" height="5.125"/>
<line fill="none" x1="258.655" y1="439.869" x2="336.208" y2="439.869"/>
<g>
	<path fill="#111183" d="M265.585,471.92v-11.453h10.033c0.93,0,1.598,0.174,2.005,0.521s0.611,0.913,0.611,1.695v2.56
		c0,0.774-0.204,1.333-0.611,1.676c-0.407,0.344-1.075,0.515-2.005,0.515h-1.653l5.506,4.486h-3.148l-4.974-4.486h-3.406v4.486
		H265.585z M274.583,462.142h-6.641v3.694h6.641c0.527,0,0.882-0.079,1.063-0.237c0.183-0.158,0.273-0.466,0.273-0.924v-1.372
		c0-0.422-0.096-0.721-0.287-0.897C275.44,462.23,275.091,462.142,274.583,462.142z"/>
	<path fill="#111183" d="M292.28,462.169h-8.754v2.969h8.006c1.17,0,1.967,0.188,2.394,0.562c0.427,0.373,0.64,1.088,0.64,2.144
		v1.372c0,1.056-0.208,1.771-0.625,2.145s-1.22,0.561-2.408,0.561h-7.59c-1.188,0-1.995-0.187-2.422-0.561s-0.64-1.089-0.64-2.145
		v-0.316l2.156-0.409v1.702h9.415v-3.22h-8.035c-1.179,0-1.979-0.187-2.4-0.561s-0.633-1.089-0.633-2.144v-1.082
		c0-1.047,0.211-1.762,0.633-2.145s1.222-0.574,2.4-0.574h6.943c1.159,0,1.959,0.185,2.4,0.555c0.44,0.369,0.661,1.021,0.661,1.952
		v0.277l-2.142,0.422V462.169z"/>
	<path fill="#111183" d="M297.674,471.92v-11.453h10.536c0.968,0,1.665,0.172,2.092,0.515c0.426,0.343,0.64,0.91,0.64,1.702v2.56
		c0,0.774-0.214,1.333-0.64,1.676c-0.427,0.344-1.124,0.515-2.092,0.515h-8.179v4.486H297.674z M307.146,462.142h-7.115v3.615h7.115
		c0.526,0,0.894-0.081,1.1-0.244c0.206-0.162,0.309-0.441,0.309-0.838v-1.451c0-0.396-0.101-0.675-0.302-0.838
		C308.052,462.224,307.682,462.142,307.146,462.142z"/>
	<path fill="#111183" d="M315.514,471.92c-1.198,0-2.008-0.188-2.43-0.567c-0.422-0.378-0.633-1.091-0.633-2.138v-2.217l2.344-0.435
		v3.628h6.626v-9.725h2.357v8.748c0,1.047-0.213,1.76-0.64,2.138c-0.426,0.379-1.233,0.567-2.422,0.567H315.514z"/>
</g>
<rect x="331.567" y="463.26" fill="#FFFFFF" width="3" height="5.125"/>
<rect x="310.906" y="466.661" fill="#FFFFFF" width="4.464" height="2.75"/>
<g>
	<g>
		<path fill="#565555" d="M315.389,468.756c-0.627,0-1.053-0.132-1.277-0.395s-0.337-0.758-0.337-1.484v-6.063h1.15v6.837h3.706
			v-2.637l1.138,0.277v1.585c0,0.731-0.111,1.228-0.334,1.488c-0.222,0.26-0.646,0.391-1.274,0.391H315.389z"/>
	</g>
	<g>
		<rect x="318.636" y="464.953" fill="#565555" width="1.266" height="4.438"/>
	</g>
</g>
</svg>
